<?xml version="1.0" encoding="UTF-8" standalone="no"?>
<!-- Created with Inkscape (http://www.inkscape.org/) -->

<svg
   width="100"
   height="90"
   viewBox="0 0 26.458332 23.8125"
   version="1.1"
   id="svg2227"
   sodipodi:docname="gradientLogo00.svg"
   inkscape:version="1.1.1 (3bf5ae0d25, 2021-09-20)"
   inkscape:export-filename="C:\Users\Gig Speed Networks\Documents\Graphics\Logo\googleServicesLogo00.png"
   inkscape:export-xdpi="96"
   inkscape:export-ydpi="96"
   xmlns:inkscape="http://www.inkscape.org/namespaces/inkscape"
   xmlns:sodipodi="http://sodipodi.sourceforge.net/DTD/sodipodi-0.dtd"
   xmlns:xlink="http://www.w3.org/1999/xlink"
   xmlns="http://www.w3.org/2000/svg"
   xmlns:svg="http://www.w3.org/2000/svg">
  <sodipodi:namedview
     id="namedview2229"
     pagecolor="#ffffff"
     bordercolor="#666666"
     borderopacity="1.0"
     inkscape:pageshadow="2"
     inkscape:pageopacity="0.0"
     inkscape:pagecheckerboard="true"
     inkscape:document-units="mm"
     showgrid="false"
     units="in"
     showborder="true"
     inkscape:showpageshadow="false"
     inkscape:zoom="3.7059484"
     inkscape:cx="48.705481"
     inkscape:cy="64.086159"
     inkscape:window-width="1366"
     inkscape:window-height="705"
     inkscape:window-x="-8"
     inkscape:window-y="-8"
     inkscape:window-maximized="1"
     inkscape:current-layer="layer1-7" />
  <defs
     id="defs2224">
    <linearGradient
       inkscape:collect="always"
       id="linearGradient23162">
      <stop
         style="stop-color:#e400ff;stop-opacity:1;"
         offset="0"
         id="stop23158" />
      <stop
         style="stop-color:#e400ff;stop-opacity:0;"
         offset="1"
         id="stop23160" />
    </linearGradient>
    <linearGradient
       inkscape:collect="always"
       id="linearGradient19328">
      <stop
         style="stop-color:#1d62ff;stop-opacity:1"
         offset="0"
         id="stop19324" />
      <stop
         style="stop-color:#8797ff;stop-opacity:1;"
         offset="0.2696006"
         id="stop20198" />
      <stop
         style="stop-color:#ac57ff;stop-opacity:1"
         offset="0.48496726"
         id="stop19940" />
      <stop
         style="stop-color:#b100ff;stop-opacity:1;"
         offset="0.81336838"
         id="stop19746" />
      <stop
         style="stop-color:#e400ff;stop-opacity:1"
         offset="1"
         id="stop19326" />
    </linearGradient>
    <linearGradient
       id="linearGradient1512"
       inkscape:swatch="solid">
      <stop
         style="stop-color:#000000;stop-opacity:1;"
         offset="0"
         id="stop1510" />
    </linearGradient>
    <marker
       inkscape:stockid="DistanceStart"
       orient="auto"
       refY="0"
       refX="0"
       id="DistanceStart"
       style="overflow:visible"
       inkscape:isstock="true">
      <g
         id="g2300">
        <path
           id="path2306"
           d="M 0,0 H 2"
           style="fill:none;stroke:context-fill;stroke-width:1.15;stroke-linecap:square" />
        <path
           id="path2302"
           d="M 0,0 13,4 9,0 13,-4 Z"
           style="fill:context-stroke;fill-rule:evenodd;stroke:none" />
        <path
           id="path2304"
           d="M 0,-4 V 40"
           style="fill:none;stroke:context-stroke;stroke-width:1;stroke-linecap:square" />
      </g>
    </marker>
    <marker
       style="overflow:visible"
       id="Arrow1Lstart"
       refX="0"
       refY="0"
       orient="auto"
       inkscape:stockid="Arrow1Lstart"
       inkscape:isstock="true">
      <path
         transform="matrix(0.8,0,0,0.8,10,0)"
         style="fill:context-stroke;fill-rule:evenodd;stroke:context-stroke;stroke-width:1pt"
         d="M 0,0 5,-5 -12.5,0 5,5 Z"
         id="path1222" />
    </marker>
    <inkscape:path-effect
       effect="fill_between_many"
       method="originald"
       linkedpaths="#rect37561,0,1"
       id="path-effect20293"
       is_visible="true"
       lpeversion="0"
       join="true"
       close="true"
       autoreverse="true"
       applied="false" />
    <linearGradient
       inkscape:collect="always"
       xlink:href="#linearGradient19328"
       id="linearGradient19330"
       x1="6.7187243"
       y1="2.1314585"
       x2="6.7347002"
       y2="13.063551"
       gradientUnits="userSpaceOnUse"
       gradientTransform="matrix(0.94400187,0,0,0.85230784,-0.86168661,-1.4892333)" />
    <linearGradient
       inkscape:collect="always"
       xlink:href="#linearGradient23162"
       id="linearGradient23164"
       x1="27.435728"
       y1="3.4979098"
       x2="27.220263"
       y2="10.379006"
       gradientUnits="userSpaceOnUse" />
  </defs>
  <g
     inkscape:label="Layer 1"
     inkscape:groupmode="layer"
     id="layer1">
    <g
       inkscape:label="Layer 1"
       id="layer1-7"
       transform="matrix(2.1120101,0,0,2.1681929,1.5712412,0.79600198)">
      <g
         aria-label="GSN"
         transform="scale(1.0940537,0.91403193)"
         id="text26641"
         style="font-size:4.44518px;line-height:1.25;font-family:'Trebuchet MS';-inkscape-font-specification:'Trebuchet MS';fill:#000101;fill-opacity:0;stroke:#000000;stroke-width:0.304233;stroke-opacity:0.64" />
      <path
         inkscape:original-d="M 0,0"
         inkscape:path-effect="#path-effect20293"
         d="M 0.2482174,0.35923347 H 10.919933 c 0.316562,0 0.57141,0.23009471 0.57141,0.51590727 V 9.0972184 c 0,0.2858122 -0.254848,0.5159068 -0.57141,0.5159068 H 0.2482174 c -0.31656129,0 -0.57141025,-0.2300946 -0.57141025,-0.5159068 V 0.87514074 c 0,-0.28581256 0.25484896,-0.51590727 0.57141025,-0.51590727 z"
         id="path20295"
         style="fill:none" />
      <path
         id="rect37561"
         style="opacity:1;mix-blend-mode:normal;fill:none;fill-opacity:1;stroke:url(#linearGradient19330);stroke-width:0.371084;stroke-miterlimit:4;stroke-dasharray:none;stroke-opacity:1"
         d="M 0.2482174,0.35923347 H 10.919933 c 0.316562,0 0.57141,0.23009471 0.57141,0.51590727 V 9.0972184 c 0,0.2858122 -0.254848,0.5159068 -0.57141,0.5159068 H 0.2482174 c -0.31656129,0 -0.57141025,-0.2300946 -0.57141025,-0.5159068 V 0.87514074 c 0,-0.28581256 0.25484896,-0.51590727 0.57141025,-0.51590727 z M 9.1889301,5.5413355 7.4919893,3.7303846 v 1.777133 H 7.0660729 V 3.030353 H 7.245406 L 8.8975139,4.743232 V 3.030353 H 9.3234307 V 5.5413355 Z M 4.7100821,5.3942275 4.8737238,5.0831024 q 0.1255333,0.069327 0.3115916,0.1166719 0.1882998,0.045654 0.3362498,0.045654 0.262275,0 0.4214332,-0.1082176 0.1591583,-0.1082176 0.1591583,-0.2756162 0,-0.1251263 -0.089667,-0.2316529 Q 5.9250651,4.5217244 5.5686402,4.3949071 L 5.3041236,4.3019078 Q 4.9678738,4.183545 4.8333738,4.0212188 4.7011154,3.8588927 4.7011154,3.6306215 q 0,-0.2773072 0.2600334,-0.459924 0.2600332,-0.1826169 0.6680163,-0.1826169 0.5447248,0 0.757683,0.1335809 L 6.25459,3.4158777 Q 6.164923,3.3668417 5.9811067,3.3211877 5.7972901,3.2755337 5.6403735,3.2755337 q -0.2286499,0 -0.3609082,0.098072 -0.1300167,0.098072 -0.1300167,0.2519437 0,0.09469 0.047075,0.1724714 0.047074,0.077782 0.1300167,0.1301992 0.085183,0.052418 0.3452166,0.147108 l 0.2689998,0.096381 q 0.3362499,0.1200536 0.4707499,0.2874525 0.1367416,0.1657078 0.1367416,0.4227243 0,0.2789981 -0.2981415,0.4734512 -0.2959001,0.1944531 -0.7935498,0.1944531 -0.437125,0 -0.7464748,-0.1555626 z M 4.0286157,3.2028246 3.8425574,3.4818226 Q 3.504066,3.2924421 3.1790245,3.2924421 q -0.5155833,0 -0.8137248,0.2739255 -0.2981415,0.2739253 -0.2981415,0.7253948 0,0.4294879 0.2914165,0.691577 0.2936582,0.262089 0.7980331,0.262089 0.3586666,0 0.5805914,-0.162326 V 4.5031246 H 3.2821411 V 4.215672 h 0.9033913 v 1.0787926 q -0.1793333,0.1149809 -0.4998915,0.1859986 -0.3205582,0.069327 -0.6231831,0.069327 -0.6792248,0 -1.073758,-0.346634 -0.3922914,-0.3483251 -0.3922914,-0.9249211 0,-0.5749051 0.4303998,-0.9316845 0.4326415,-0.3584702 1.1656662,-0.3584702 0.5133415,0 0.8361413,0.2147442 z M 1.2848241,2.0967219 c -0.2758201,0 -0.49793126,0.2003437 -0.49793126,0.4496117 v 3.424094 c 0,0.249268 0.22211116,0.4499974 0.49793126,0.4499974 H 1.7703822 2.314821 c 0,0 -0.00981,0.1936 -0.00981,0.3705634 v 0.040924 c 0,0.2134304 0.1900856,0.3860501 0.4262497,0.3852165 l 1.4476548,-0.00511 v 0 l 0.00426,0.3686342 v 0.2151647 c 0,0.2134278 0.1905227,0.383131 0.4266763,0.3852121 l 1.9809402,0.017452 c 0.2361494,0.00203 0.4262454,-0.1717841 0.4262454,-0.3852118 -9.166e-4,-0.1946173 7.862e-4,-0.389212 0.00426,-0.5838007 L 8.6876566,7.2171302 C 8.9238147,7.2153403 8.9637168,7.045345 8.9637168,6.8319142 v -0.00858 c 0,-0.1769634 -0.00978,-0.3458849 -0.00978,-0.3458849 0.3037496,-0.00822 0.7594794,-0.016452 1.1392252,-0.024677 0.275742,-0.00598 0.388706,-0.2007346 0.388706,-0.4500025 V 2.5463369 c 0,-0.249268 -0.222114,-0.4496118 -0.4979334,-0.4496118 z" />
    </g>
  </g>
</svg>
